<svg width="160" height="160" viewBox="0 0 160 160" xmlns="http://www.w3.org/2000/svg" role="img" aria-label="Bengali assistant">
  <rect width="160" height="160" rx="24" fill="#fff7fa"/>
  <circle cx="80" cy="54" r="28" fill="#f2c5a0"/>
  <path d="M50 128c4-24 16-38 30-38 14 0 26 14 30 38H50z" fill="#a31f3f"/>
  <path d="M58 94h44v10H58z" fill="#f6d4dd"/>
  <circle cx="70" cy="52" r="3" fill="#333"/>
  <circle cx="90" cy="52" r="3" fill="#333"/>
  <path d="M70 66c3 3 7 5 10 5s7-2 10-5" stroke="#7a3e13" stroke-width="3" fill="none" stroke-linecap="round"/>
  <path d="M52 44c8-17 22-24 28-24s20 7 28 24" fill="#2c2a2a"/>
  <path d="M44 136h72" stroke="#d94a74" stroke-width="6" stroke-linecap="round"/>
</svg>
